<?xml version="1.0" encoding="utf-8"?>
<!-- Generator: Adobe Illustrator 22.1.0, SVG Export Plug-In . SVG Version: 6.00 Build 0)  -->
<svg version="1.1" id="Layer_1" xmlns="http://www.w3.org/2000/svg" xmlns:xlink="http://www.w3.org/1999/xlink" x="0px" y="0px"
	 viewBox="0 0 1920 1080" style="enable-background:new 0 0 1920 1080;" xml:space="preserve">
<style type="text/css">
	.st0{fill:#A7A4A4;}
</style>
<path class="st0" d="M1004.2,1452c-29.7,0-59.4,0-94.1,0c-5,0-14.9-5-19.8-5c-44.6-5-89.2-9.9-128.8-19.8
	C375.1,1343,92.8,1021.1,53.2,624.9c-14.9-163.4,9.9-317,79.2-465.6C300.9-207.2,702-425.2,1103.2-360.8
	c193.2,29.7,361.6,113.9,500.2,257.6c143.6,143.6,227.8,317,257.6,515.1c5,29.7,5,54.5,9.9,84.2c0,29.7,0,59.4,0,94.1
	c-5,34.7-5,64.4-9.9,99.1c-29.7,193.2-113.9,361.6-252.6,500.2c-143.6,143.6-317,227.8-515.1,257.6
	C1058.7,1447.1,1033.9,1447.1,1004.2,1452z M801.1,263.3L801.1,263.3c0,34.7,0,64.4,0,99.1c0,14.9-5,19.8-19.8,19.8
	c-69.3,0-138.7,0-208,5c-104,5-173.4,128.8-123.8,222.9c29.7,64.4,84.2,89.2,153.5,89.2c59.4,0,118.9,0,183.3,0
	c14.9,0,19.8,5,19.8,19.8c0,69.3,0,133.7,0,203.1c5,84.2,74.3,148.6,153.5,148.6c84.2,0,153.5-64.4,158.5-148.6
	c0-64.4,0-128.8,0-193.2c0-29.7-5-29.7,24.8-29.7c69.3,0,133.7,0,203.1-5c104-5,173.4-128.8,123.8-222.9
	c-29.7-64.4-84.2-89.2-153.5-89.2c-59.4,0-118.9,0-178.3,0c-14.9,0-24.8-5-24.8-19.8c0-64.4,0-133.7,0-198.1
	c-5-84.2-74.3-148.6-158.5-148.6c-84.2,0-153.5,64.4-153.5,148.6C801.1,194,801.1,228.6,801.1,263.3z"/>
</svg>
